<svg width="320" height="568" viewBox="0 0 320 568" fill="none" xmlns="http://www.w3.org/2000/svg">
<rect width="320" height="568" fill="url(#paint0_linear)"/>
<g filter="url(#filter0_d)">
<g filter="url(#filter1_d)">
<path d="M216.56 229C204.173 229 194.094 237.79 194.094 248.596C194.094 259.401 204.173 268.191 216.56 268.191C219.187 268.214 221.802 267.832 224.314 267.059L231.637 270.756C232.437 271.157 233.389 271.089 234.126 270.58C234.863 270.071 235.269 269.2 235.189 268.304L234.475 260.417C237.378 257.172 238.997 252.965 239.025 248.596C239.025 237.788 228.947 229 216.56 229V229ZM232.586 258.768C232.14 259.279 231.923 259.954 231.989 260.632L232.746 268.495L225.431 264.801C225.094 264.634 224.723 264.547 224.348 264.549C224.099 264.55 223.851 264.588 223.613 264.663C221.325 265.351 218.948 265.692 216.56 265.675C205.549 265.675 196.591 258.013 196.591 248.596C196.591 239.179 205.549 231.517 216.56 231.517C227.57 231.517 236.529 239.179 236.529 248.596C236.496 252.359 235.093 255.979 232.586 258.768V258.768Z" fill="white"/>
</g>
<path d="M195.655 247.097C195.738 238.028 203.94 233.542 208.031 232.432C211.464 230.491 220.97 228.501 231.537 236.072C242.104 243.644 237.812 255.244 234.345 260.098V269.458C234.033 269.771 231.516 269.521 223.944 266.026C201.063 268.938 195.551 258.434 195.655 247.097Z" fill="url(#paint1_radial)" stroke="black"/>
<path d="M216.465 229.208C204.078 229.208 194 237.998 194 248.804C194 259.609 204.078 268.4 216.465 268.4C219.092 268.422 221.707 268.04 224.22 267.267L231.542 270.964C232.342 271.365 233.295 271.297 234.032 270.788C234.769 270.279 235.175 269.408 235.094 268.512L234.38 260.625C237.283 257.38 238.902 253.173 238.931 248.804C238.931 237.996 228.853 229.208 216.465 229.208V229.208ZM232.492 258.976C232.045 259.487 231.829 260.162 231.894 260.84L232.652 268.703L225.337 265.009C225 264.842 224.629 264.755 224.253 264.757C224.004 264.758 223.756 264.796 223.518 264.871C221.23 265.559 218.853 265.9 216.465 265.883C205.455 265.883 196.496 258.221 196.496 248.804C196.496 239.387 205.455 231.725 216.465 231.725C227.476 231.725 236.435 239.387 236.435 248.804C236.401 252.567 234.998 256.187 232.492 258.976V258.976Z" fill="white"/>
<path d="M210.042 245.717C209.541 245.717 209.135 246.126 209.135 246.631V247.545C209.135 248.05 209.541 248.46 210.042 248.46C210.543 248.46 210.949 248.05 210.949 247.545V246.631C210.949 246.126 210.543 245.717 210.042 245.717Z" fill="black"/>
<path d="M222.735 245.717C222.234 245.717 221.828 246.126 221.828 246.631V247.545C221.828 248.05 222.234 248.46 222.735 248.46C223.235 248.46 223.641 248.05 223.641 247.545V246.631C223.641 246.126 223.235 245.717 222.735 245.717Z" fill="black"/>
<path d="M220.015 250.288C219.514 250.288 219.108 250.697 219.108 251.202C219.108 252.717 217.89 253.945 216.388 253.945C214.886 253.945 213.668 252.717 213.668 251.202C213.668 250.697 213.262 250.288 212.762 250.288C212.261 250.288 211.855 250.697 211.855 251.202C211.855 253.727 213.885 255.773 216.388 255.773C218.892 255.773 220.921 253.727 220.921 251.202C220.921 250.96 220.826 250.727 220.656 250.556C220.486 250.384 220.255 250.288 220.015 250.288Z" fill="black"/>
</g>
<path d="M110.628 240.544C110.628 242.584 110.1 244.456 109.044 246.16C107.988 247.864 106.452 249.256 104.436 250.336C102.42 251.416 100.02 252.052 97.236 252.244L95.688 260.92C95.088 264.256 93.456 265.924 90.792 265.924C89.328 265.924 87.972 265.492 86.724 264.628C85.5 263.764 84.516 262.444 83.772 260.668C83.028 258.892 82.656 256.708 82.656 254.116C82.656 249.244 83.436 245.116 84.996 241.732C86.58 238.324 88.692 235.78 91.332 234.1C93.996 232.396 96.924 231.544 100.116 231.544C102.372 231.544 104.28 231.94 105.84 232.732C107.424 233.524 108.612 234.604 109.404 235.972C110.22 237.316 110.628 238.84 110.628 240.544ZM97.884 248.536C102.804 247.912 105.264 245.356 105.264 240.868C105.264 239.284 104.736 238 103.68 237.016C102.648 236.008 101.04 235.504 98.856 235.504C96.384 235.504 94.224 236.284 92.376 237.844C90.552 239.404 89.136 241.576 88.128 244.36C87.144 247.12 86.652 250.276 86.652 253.828C86.652 255.316 86.796 256.636 87.084 257.788C87.396 258.94 87.78 259.84 88.236 260.488C88.716 261.112 89.172 261.424 89.604 261.424C90.204 261.424 90.66 260.596 90.972 258.94L92.16 252.136C91.224 251.992 90.816 251.932 90.936 251.956C90.216 251.836 89.748 251.62 89.532 251.308C89.316 250.972 89.208 250.552 89.208 250.048C89.208 249.52 89.352 249.1 89.64 248.788C89.952 248.476 90.372 248.32 90.9 248.32C91.14 248.32 91.32 248.332 91.44 248.356C92.016 248.452 92.46 248.512 92.772 248.536C93.084 246.664 93.528 244.156 94.104 241.012C94.248 240.196 94.572 239.62 95.076 239.284C95.604 238.924 96.216 238.744 96.912 238.744C97.704 238.744 98.268 238.9 98.604 239.212C98.964 239.5 99.144 239.968 99.144 240.616C99.144 241 99.12 241.312 99.072 241.552L97.884 248.536ZM125.017 253.972C125.329 253.972 125.569 254.116 125.737 254.404C125.929 254.692 126.025 255.088 126.025 255.592C126.025 256.552 125.797 257.296 125.341 257.824C124.237 259.096 123.097 260.14 121.921 260.956C120.769 261.772 119.449 262.18 117.961 262.18C116.737 262.18 115.813 261.832 115.189 261.136C114.565 260.416 114.253 259.384 114.253 258.04C114.253 257.368 114.421 256.168 114.757 254.44C115.069 252.928 115.225 251.884 115.225 251.308C115.225 250.924 115.093 250.732 114.829 250.732C114.517 250.732 114.073 251.14 113.497 251.956C112.921 252.748 112.345 253.804 111.769 255.124C111.193 256.444 110.725 257.836 110.365 259.3C109.909 261.22 108.781 262.18 106.981 262.18C106.261 262.18 105.781 261.928 105.541 261.424C105.325 260.896 105.217 259.96 105.217 258.616C105.217 257.848 105.229 257.236 105.253 256.78L105.289 253.9C105.289 250.204 105.661 246.352 106.405 242.344C107.173 238.336 108.289 234.976 109.753 232.264C111.241 229.528 113.017 228.16 115.081 228.16C116.185 228.16 117.073 228.64 117.745 229.6C118.441 230.536 118.789 231.76 118.789 233.272C118.789 235.696 118.081 238.216 116.665 240.832C115.249 243.424 112.945 246.46 109.753 249.94C109.681 251.188 109.645 252.472 109.645 253.792C110.437 251.752 111.313 250.096 112.273 248.824C113.257 247.528 114.217 246.604 115.153 246.052C116.113 245.5 116.989 245.224 117.781 245.224C119.341 245.224 120.121 246.004 120.121 247.564C120.121 248.5 119.857 250.192 119.329 252.64C118.873 254.728 118.645 256.108 118.645 256.78C118.645 257.74 118.993 258.22 119.689 258.22C120.169 258.22 120.733 257.932 121.381 257.356C122.053 256.756 122.941 255.796 124.045 254.476C124.333 254.14 124.657 253.972 125.017 253.972ZM114.325 231.724C113.893 231.724 113.413 232.348 112.885 233.596C112.357 234.82 111.841 236.488 111.337 238.6C110.857 240.688 110.461 242.968 110.149 245.44C111.637 243.688 112.861 241.78 113.821 239.716C114.805 237.652 115.297 235.78 115.297 234.1C115.297 233.332 115.213 232.744 115.045 232.336C114.877 231.928 114.637 231.724 114.325 231.724ZM125.663 262.18C124.751 262.18 124.103 261.7 123.719 260.74C123.359 259.78 123.179 258.244 123.179 256.132C123.179 253.012 123.623 250.048 124.511 247.24C124.727 246.544 125.075 246.04 125.555 245.728C126.059 245.392 126.755 245.224 127.643 245.224C128.123 245.224 128.459 245.284 128.651 245.404C128.843 245.524 128.939 245.752 128.939 246.088C128.939 246.472 128.759 247.336 128.399 248.68C128.159 249.64 127.967 250.48 127.823 251.2C127.679 251.92 127.559 252.808 127.463 253.864C128.255 251.8 129.143 250.12 130.127 248.824C131.111 247.528 132.071 246.604 133.007 246.052C133.967 245.5 134.843 245.224 135.635 245.224C137.195 245.224 137.975 246.004 137.975 247.564C137.975 247.876 137.867 248.632 137.651 249.832C137.459 250.792 137.363 251.392 137.363 251.632C137.363 252.472 137.663 252.892 138.263 252.892C138.935 252.892 139.799 252.364 140.855 251.308C141.167 250.996 141.491 250.84 141.827 250.84C142.139 250.84 142.379 250.984 142.547 251.272C142.739 251.536 142.835 251.896 142.835 252.352C142.835 253.24 142.595 253.936 142.115 254.44C141.443 255.136 140.651 255.736 139.739 256.24C138.851 256.72 137.903 256.96 136.895 256.96C135.623 256.96 134.651 256.636 133.979 255.988C133.331 255.34 133.007 254.464 133.007 253.36C133.007 253 133.043 252.64 133.115 252.28C133.163 251.8 133.187 251.476 133.187 251.308C133.187 250.924 133.055 250.732 132.791 250.732C132.431 250.732 131.951 251.14 131.351 251.956C130.775 252.748 130.199 253.804 129.623 255.124C129.047 256.444 128.579 257.836 128.219 259.3C127.955 260.428 127.643 261.196 127.283 261.604C126.947 261.988 126.407 262.18 125.663 262.18ZM143.918 262.18C142.43 262.18 141.242 261.64 140.354 260.56C139.466 259.48 139.022 258.064 139.022 256.312C139.022 254.392 139.466 252.58 140.354 250.876C141.242 249.148 142.418 247.768 143.882 246.736C145.37 245.68 146.942 245.152 148.598 245.152C149.126 245.152 149.474 245.26 149.642 245.476C149.834 245.668 149.99 246.028 150.11 246.556C150.614 246.46 151.142 246.412 151.694 246.412C152.87 246.412 153.458 246.832 153.458 247.672C153.458 248.176 153.278 249.376 152.918 251.272C152.366 254.032 152.09 255.952 152.09 257.032C152.09 257.392 152.174 257.68 152.342 257.896C152.534 258.112 152.774 258.22 153.062 258.22C153.518 258.22 154.07 257.932 154.718 257.356C155.366 256.756 156.242 255.796 157.346 254.476C157.634 254.14 157.958 253.972 158.318 253.972C158.63 253.972 158.87 254.116 159.038 254.404C159.23 254.692 159.326 255.088 159.326 255.592C159.326 256.552 159.098 257.296 158.642 257.824C157.658 259.048 156.614 260.08 155.51 260.92C154.406 261.76 153.338 262.18 152.306 262.18C151.514 262.18 150.782 261.916 150.11 261.388C149.462 260.836 148.97 260.092 148.634 259.156C147.386 261.172 145.814 262.18 143.918 262.18ZM145.214 258.544C145.742 258.544 146.246 258.232 146.726 257.608C147.206 256.984 147.554 256.156 147.77 255.124L149.102 248.5C148.094 248.524 147.158 248.908 146.294 249.652C145.454 250.372 144.782 251.332 144.278 252.532C143.774 253.732 143.522 255.004 143.522 256.348C143.522 257.092 143.666 257.644 143.954 258.004C144.266 258.364 144.686 258.544 145.214 258.544ZM163.096 262.972C161.848 262.972 160.888 262.684 160.216 262.108C159.568 261.532 159.244 260.884 159.244 260.164C159.244 259.54 159.472 259 159.928 258.544C160.384 258.088 161.056 257.86 161.944 257.86C162.256 257.86 162.616 257.896 163.024 257.968C163.456 258.016 163.78 258.052 163.996 258.076C163.972 257.452 163.828 256.864 163.564 256.312C163.324 255.76 163.012 255.232 162.628 254.728C162.244 254.2 161.884 253.744 161.548 253.36C160.804 254.776 160.06 255.952 159.316 256.888C158.596 257.824 157.804 258.712 156.94 259.552C156.508 259.984 156.052 260.2 155.572 260.2C155.188 260.2 154.876 260.068 154.636 259.804C154.396 259.516 154.276 259.168 154.276 258.76C154.276 258.28 154.444 257.836 154.78 257.428L155.248 256.852C156.568 255.22 157.564 253.876 158.236 252.82C158.644 252.124 159.124 251.2 159.676 250.048C160.228 248.872 160.768 247.66 161.296 246.412C161.752 245.356 162.7 244.828 164.14 244.828C164.812 244.828 165.28 244.888 165.544 245.008C165.808 245.128 165.94 245.32 165.94 245.584C165.94 245.728 165.892 245.956 165.796 246.268C165.7 246.58 165.568 246.892 165.4 247.204C164.968 248.068 164.752 248.8 164.752 249.4C164.752 249.76 164.872 250.156 165.112 250.588C165.376 251.02 165.772 251.56 166.3 252.208C167.068 253.216 167.644 254.08 168.028 254.8C168.436 255.496 168.64 256.264 168.64 257.104C168.64 257.344 168.616 257.68 168.568 258.112C169.744 257.656 171.124 256.444 172.708 254.476C172.996 254.14 173.32 253.972 173.68 253.972C173.992 253.972 174.232 254.116 174.4 254.404C174.592 254.692 174.688 255.088 174.688 255.592C174.688 256.504 174.46 257.248 174.004 257.824C172.804 259.312 171.652 260.332 170.548 260.884C169.468 261.412 168.124 261.7 166.516 261.748C165.556 262.564 164.416 262.972 163.096 262.972ZM184.363 245.224C184.915 245.224 185.299 245.296 185.515 245.44C185.731 245.584 185.839 245.824 185.839 246.16C185.839 246.736 185.527 248.788 184.903 252.316C184.351 255.7 184.027 257.704 183.931 258.328C183.043 264.496 181.819 269.38 180.259 272.98C178.699 276.58 176.623 278.38 174.031 278.38C172.807 278.38 171.811 277.996 171.043 277.228C170.275 276.484 169.891 275.5 169.891 274.276C169.891 273.148 170.143 271.996 170.647 270.82C171.175 269.644 172.135 268.288 173.527 266.752C174.943 265.24 176.935 263.5 179.503 261.532L179.611 260.704C179.779 259.816 179.971 258.544 180.187 256.888C179.707 258.616 179.035 259.936 178.171 260.848C177.307 261.736 176.395 262.18 175.435 262.18C174.355 262.18 173.467 261.688 172.771 260.704C172.099 259.696 171.763 258.448 171.763 256.96C171.763 255.16 171.883 253.516 172.123 252.028C172.363 250.516 172.759 248.92 173.311 247.24C173.551 246.52 173.887 246.004 174.319 245.692C174.751 245.38 175.435 245.224 176.371 245.224C176.899 245.224 177.259 245.308 177.451 245.476C177.667 245.644 177.775 245.896 177.775 246.232C177.775 246.424 177.643 247.072 177.379 248.176C177.139 249.064 176.947 249.868 176.803 250.588C176.611 251.572 176.443 252.52 176.299 253.432C176.155 254.32 176.083 255.052 176.083 255.628C176.083 256.54 176.335 256.996 176.839 256.996C177.199 256.996 177.643 256.636 178.171 255.916C178.723 255.196 179.299 254.104 179.899 252.64C180.523 251.176 181.123 249.376 181.699 247.24C181.891 246.52 182.179 246.004 182.563 245.692C182.971 245.38 183.571 245.224 184.363 245.224ZM174.427 274.888C175.027 274.888 175.699 274.192 176.443 272.8C177.187 271.408 177.931 269.092 178.675 265.852C176.827 267.412 175.483 268.828 174.643 270.1C173.827 271.396 173.419 272.524 173.419 273.484C173.419 273.892 173.491 274.228 173.635 274.492C173.803 274.756 174.067 274.888 174.427 274.888Z" fill="white"/>
<defs>
<filter id="filter0_d" x="190" y="229" width="53.0252" height="50.2233" filterUnits="userSpaceOnUse" color-interpolation-filters="sRGB">
<feFlood flood-opacity="0" result="BackgroundImageFix"/>
<feColorMatrix in="SourceAlpha" type="matrix" values="0 0 0 0 0 0 0 0 0 0 0 0 0 0 0 0 0 0 127 0"/>
<feOffset dy="4"/>
<feGaussianBlur stdDeviation="2"/>
<feColorMatrix type="matrix" values="0 0 0 0 0 0 0 0 0 0 0 0 0 0 0 0 0 0 0.35 0"/>
<feBlend mode="normal" in2="BackgroundImageFix" result="effect1_dropShadow"/>
<feBlend mode="normal" in="SourceGraphic" in2="effect1_dropShadow" result="shape"/>
</filter>
<filter id="filter1_d" x="182.094" y="217" width="76.9308" height="74.0153" filterUnits="userSpaceOnUse" color-interpolation-filters="sRGB">
<feFlood flood-opacity="0" result="BackgroundImageFix"/>
<feColorMatrix in="SourceAlpha" type="matrix" values="0 0 0 0 0 0 0 0 0 0 0 0 0 0 0 0 0 0 127 0"/>
<feOffset dx="4" dy="4"/>
<feGaussianBlur stdDeviation="8"/>
<feColorMatrix type="matrix" values="0 0 0 0 0 0 0 0 0 0 0 0 0 0 0 0 0 0 0.5 0"/>
<feBlend mode="normal" in2="BackgroundImageFix" result="effect1_dropShadow"/>
<feBlend mode="normal" in="SourceGraphic" in2="effect1_dropShadow" result="shape"/>
</filter>
<linearGradient id="paint0_linear" x1="435.5" y1="690" x2="288.564" y2="-133.414" gradientUnits="userSpaceOnUse">
<stop stop-color="#9DFFB3"/>
<stop offset="0.421875" stop-color="#3AB4B1"/>
<stop offset="0.786458" stop-color="#4A6993"/>
<stop offset="1" stop-color="#564A6D"/>
</linearGradient>
<radialGradient id="paint1_radial" cx="0" cy="0" r="1" gradientUnits="userSpaceOnUse" gradientTransform="translate(224.88 253.442) rotate(77.9052) scale(13.4023 18.9433)">
<stop stop-color="#CF75A6"/>
<stop offset="1" stop-color="#F485C1"/>
</radialGradient>
</defs>
</svg>
