<svg width="179" height="82" viewBox="0 0 179 82" fill="none" xmlns="http://www.w3.org/2000/svg">
<g filter="url(#filter0_d)">
<g filter="url(#filter1_d)">
<path d="M135.56 19C123.173 19 113.094 27.7905 113.094 38.5957C113.094 49.401 123.173 58.1915 135.56 58.1915C138.187 58.2138 140.802 57.8319 143.314 57.0589L150.637 60.7563C151.437 61.1565 152.389 61.0892 153.126 60.5803C153.863 60.0714 154.269 59.2005 154.189 58.3035L153.475 50.4166C156.378 47.1721 157.997 42.9653 158.025 38.5957C158.025 27.7879 147.947 19 135.56 19ZM151.586 48.768C151.14 49.2789 150.923 49.9539 150.989 50.6318L151.746 58.4948L144.431 54.8012C144.094 54.6336 143.723 54.5475 143.348 54.5495C143.099 54.5498 142.851 54.588 142.613 54.6627C140.325 55.3511 137.948 55.6922 135.56 55.6745C124.549 55.6745 115.591 48.0129 115.591 38.5957C115.591 29.1786 124.549 21.517 135.56 21.517C146.57 21.517 155.529 29.1786 155.529 38.5957C155.496 42.3592 154.093 45.9791 151.586 48.768Z" fill="white"/>
</g>
<path d="M114.655 37.0971C114.738 28.0278 122.94 23.5416 127.031 22.4322C130.464 20.4908 139.97 18.5008 150.537 26.0724C161.104 33.6441 156.812 45.2443 153.345 50.0979V59.4585C153.033 59.7705 150.516 59.5209 142.944 56.0263C120.063 58.9384 114.551 48.4338 114.655 37.0971Z" fill="url(#paint0_radial)" stroke="black"/>
<path d="M135.465 19.208C123.078 19.208 113 27.9985 113 38.8038C113 49.609 123.078 58.3995 135.465 58.3995C138.092 58.4218 140.707 58.0399 143.22 57.2669L150.542 60.9643C151.342 61.3645 152.295 61.2972 153.032 60.7883C153.769 60.2794 154.175 59.4085 154.094 58.5115L153.38 50.6246C156.283 47.3801 157.902 43.1733 157.931 38.8038C157.931 27.996 147.853 19.208 135.465 19.208ZM151.492 48.976C151.045 49.4869 150.829 50.1619 150.894 50.8398L151.652 58.7028L144.337 55.0092C144 54.8416 143.629 54.7555 143.253 54.7575C143.004 54.7578 142.756 54.796 142.518 54.8707C140.23 55.5592 137.853 55.9002 135.465 55.8825C124.455 55.8825 115.496 48.2209 115.496 38.8038C115.496 29.3866 124.455 21.725 135.465 21.725C146.476 21.725 155.435 29.3866 155.435 38.8038C155.401 42.5672 153.998 46.1871 151.492 48.976Z" fill="white"/>
<path d="M129.042 35.717C128.541 35.717 128.135 36.1263 128.135 36.6312V37.5454C128.135 38.0503 128.541 38.4596 129.042 38.4596C129.543 38.4596 129.949 38.0503 129.949 37.5454V36.6312C129.949 36.1263 129.543 35.717 129.042 35.717Z" fill="black"/>
<path d="M141.735 35.717C141.234 35.717 140.828 36.1263 140.828 36.6312V37.5454C140.828 38.0503 141.234 38.4596 141.735 38.4596C142.235 38.4596 142.641 38.0503 142.641 37.5454V36.6312C142.641 36.1263 142.235 35.717 141.735 35.717Z" fill="black"/>
<path d="M139.015 40.2879C138.514 40.2879 138.108 40.6972 138.108 41.2021C138.108 42.7168 136.89 43.9447 135.388 43.9447C133.886 43.9447 132.668 42.7168 132.668 41.2021C132.668 40.6972 132.262 40.2879 131.762 40.2879C131.261 40.2879 130.855 40.6972 130.855 41.2021C130.855 43.7266 132.885 45.773 135.388 45.773C137.892 45.773 139.921 43.7266 139.921 41.2021C139.921 40.9597 139.826 40.7271 139.656 40.5557C139.486 40.3842 139.255 40.2879 139.015 40.2879Z" fill="black"/>
</g>
<path d="M29.628 30.544C29.628 32.584 29.1 34.456 28.044 36.16C26.988 37.864 25.452 39.256 23.436 40.336C21.42 41.416 19.02 42.052 16.236 42.244L14.688 50.92C14.088 54.256 12.456 55.924 9.792 55.924C8.328 55.924 6.972 55.492 5.724 54.628C4.5 53.764 3.516 52.444 2.772 50.668C2.028 48.892 1.656 46.708 1.656 44.116C1.656 39.244 2.436 35.116 3.996 31.732C5.58 28.324 7.692 25.78 10.332 24.1C12.996 22.396 15.924 21.544 19.116 21.544C21.372 21.544 23.28 21.94 24.84 22.732C26.424 23.524 27.612 24.604 28.404 25.972C29.22 27.316 29.628 28.84 29.628 30.544ZM16.884 38.536C21.804 37.912 24.264 35.356 24.264 30.868C24.264 29.284 23.736 28 22.68 27.016C21.648 26.008 20.04 25.504 17.856 25.504C15.384 25.504 13.224 26.284 11.376 27.844C9.552 29.404 8.136 31.576 7.128 34.36C6.144 37.12 5.652 40.276 5.652 43.828C5.652 45.316 5.796 46.636 6.084 47.788C6.396 48.94 6.78 49.84 7.236 50.488C7.716 51.112 8.172 51.424 8.604 51.424C9.204 51.424 9.66 50.596 9.972 48.94L11.16 42.136C10.224 41.992 9.816 41.932 9.936 41.956C9.216 41.836 8.748 41.62 8.532 41.308C8.316 40.972 8.208 40.552 8.208 40.048C8.208 39.52 8.352 39.1 8.64 38.788C8.952 38.476 9.372 38.32 9.9 38.32C10.14 38.32 10.32 38.332 10.44 38.356C11.016 38.452 11.46 38.512 11.772 38.536C12.084 36.664 12.528 34.156 13.104 31.012C13.248 30.196 13.572 29.62 14.076 29.284C14.604 28.924 15.216 28.744 15.912 28.744C16.704 28.744 17.268 28.9 17.604 29.212C17.964 29.5 18.144 29.968 18.144 30.616C18.144 31 18.12 31.312 18.072 31.552L16.884 38.536ZM44.0168 43.972C44.3288 43.972 44.5688 44.116 44.7368 44.404C44.9288 44.692 45.0248 45.088 45.0248 45.592C45.0248 46.552 44.7968 47.296 44.3408 47.824C43.2368 49.096 42.0968 50.14 40.9208 50.956C39.7688 51.772 38.4488 52.18 36.9608 52.18C35.7368 52.18 34.8128 51.832 34.1888 51.136C33.5648 50.416 33.2528 49.384 33.2528 48.04C33.2528 47.368 33.4208 46.168 33.7568 44.44C34.0688 42.928 34.2248 41.884 34.2248 41.308C34.2248 40.924 34.0928 40.732 33.8288 40.732C33.5168 40.732 33.0728 41.14 32.4968 41.956C31.9208 42.748 31.3448 43.804 30.7688 45.124C30.1928 46.444 29.7248 47.836 29.3648 49.3C28.9088 51.22 27.7808 52.18 25.9808 52.18C25.2608 52.18 24.7808 51.928 24.5408 51.424C24.3248 50.896 24.2168 49.96 24.2168 48.616C24.2168 47.848 24.2288 47.236 24.2528 46.78L24.2888 43.9C24.2888 40.204 24.6608 36.352 25.4048 32.344C26.1728 28.336 27.2888 24.976 28.7528 22.264C30.2408 19.528 32.0168 18.16 34.0808 18.16C35.1848 18.16 36.0728 18.64 36.7448 19.6C37.4408 20.536 37.7888 21.76 37.7888 23.272C37.7888 25.696 37.0808 28.216 35.6648 30.832C34.2488 33.424 31.9448 36.46 28.7528 39.94C28.6808 41.188 28.6448 42.472 28.6448 43.792C29.4368 41.752 30.3128 40.096 31.2728 38.824C32.2568 37.528 33.2168 36.604 34.1528 36.052C35.1128 35.5 35.9888 35.224 36.7808 35.224C38.3408 35.224 39.1208 36.004 39.1208 37.564C39.1208 38.5 38.8568 40.192 38.3288 42.64C37.8728 44.728 37.6448 46.108 37.6448 46.78C37.6448 47.74 37.9928 48.22 38.6888 48.22C39.1688 48.22 39.7328 47.932 40.3808 47.356C41.0528 46.756 41.9408 45.796 43.0448 44.476C43.3328 44.14 43.6568 43.972 44.0168 43.972ZM33.3248 21.724C32.8928 21.724 32.4128 22.348 31.8848 23.596C31.3568 24.82 30.8408 26.488 30.3368 28.6C29.8568 30.688 29.4608 32.968 29.1488 35.44C30.6368 33.688 31.8608 31.78 32.8208 29.716C33.8048 27.652 34.2968 25.78 34.2968 24.1C34.2968 23.332 34.2128 22.744 34.0448 22.336C33.8768 21.928 33.6368 21.724 33.3248 21.724ZM44.6631 52.18C43.7511 52.18 43.1031 51.7 42.7191 50.74C42.3591 49.78 42.1791 48.244 42.1791 46.132C42.1791 43.012 42.6231 40.048 43.5111 37.24C43.7271 36.544 44.0751 36.04 44.5551 35.728C45.0591 35.392 45.7551 35.224 46.6431 35.224C47.1231 35.224 47.4591 35.284 47.6511 35.404C47.8431 35.524 47.9391 35.752 47.9391 36.088C47.9391 36.472 47.7591 37.336 47.3991 38.68C47.1591 39.64 46.9671 40.48 46.8231 41.2C46.6791 41.92 46.5591 42.808 46.4631 43.864C47.2551 41.8 48.1431 40.12 49.1271 38.824C50.1111 37.528 51.0711 36.604 52.0071 36.052C52.9671 35.5 53.8431 35.224 54.6351 35.224C56.1951 35.224 56.9751 36.004 56.9751 37.564C56.9751 37.876 56.8671 38.632 56.6511 39.832C56.4591 40.792 56.3631 41.392 56.3631 41.632C56.3631 42.472 56.6631 42.892 57.2631 42.892C57.9351 42.892 58.7991 42.364 59.8551 41.308C60.1671 40.996 60.4911 40.84 60.8271 40.84C61.1391 40.84 61.3791 40.984 61.5471 41.272C61.7391 41.536 61.8351 41.896 61.8351 42.352C61.8351 43.24 61.5951 43.936 61.1151 44.44C60.4431 45.136 59.6511 45.736 58.7391 46.24C57.8511 46.72 56.9031 46.96 55.8951 46.96C54.6231 46.96 53.6511 46.636 52.9791 45.988C52.3311 45.34 52.0071 44.464 52.0071 43.36C52.0071 43 52.0431 42.64 52.1151 42.28C52.1631 41.8 52.1871 41.476 52.1871 41.308C52.1871 40.924 52.0551 40.732 51.7911 40.732C51.4311 40.732 50.9511 41.14 50.3511 41.956C49.7751 42.748 49.1991 43.804 48.6231 45.124C48.0471 46.444 47.5791 47.836 47.2191 49.3C46.9551 50.428 46.6431 51.196 46.2831 51.604C45.9471 51.988 45.4071 52.18 44.6631 52.18ZM62.9179 52.18C61.4299 52.18 60.2419 51.64 59.3539 50.56C58.4659 49.48 58.0219 48.064 58.0219 46.312C58.0219 44.392 58.4659 42.58 59.3539 40.876C60.2419 39.148 61.4179 37.768 62.8819 36.736C64.3699 35.68 65.9419 35.152 67.5979 35.152C68.1259 35.152 68.4739 35.26 68.6419 35.476C68.8339 35.668 68.9899 36.028 69.1099 36.556C69.6139 36.46 70.1419 36.412 70.6939 36.412C71.8699 36.412 72.4579 36.832 72.4579 37.672C72.4579 38.176 72.2779 39.376 71.9179 41.272C71.3659 44.032 71.0899 45.952 71.0899 47.032C71.0899 47.392 71.1739 47.68 71.3419 47.896C71.5339 48.112 71.7739 48.22 72.0619 48.22C72.5179 48.22 73.0699 47.932 73.7179 47.356C74.3659 46.756 75.2419 45.796 76.3459 44.476C76.6339 44.14 76.9579 43.972 77.3179 43.972C77.6299 43.972 77.8699 44.116 78.0379 44.404C78.2299 44.692 78.3259 45.088 78.3259 45.592C78.3259 46.552 78.0979 47.296 77.6419 47.824C76.6579 49.048 75.6139 50.08 74.5099 50.92C73.4059 51.76 72.3379 52.18 71.3059 52.18C70.5139 52.18 69.7819 51.916 69.1099 51.388C68.4619 50.836 67.9699 50.092 67.6339 49.156C66.3859 51.172 64.8139 52.18 62.9179 52.18ZM64.2139 48.544C64.7419 48.544 65.2459 48.232 65.7259 47.608C66.2059 46.984 66.5539 46.156 66.7699 45.124L68.1019 38.5C67.0939 38.524 66.1579 38.908 65.2939 39.652C64.4539 40.372 63.7819 41.332 63.2779 42.532C62.7739 43.732 62.5219 45.004 62.5219 46.348C62.5219 47.092 62.6659 47.644 62.9539 48.004C63.2659 48.364 63.6859 48.544 64.2139 48.544ZM82.096 52.972C80.848 52.972 79.888 52.684 79.216 52.108C78.568 51.532 78.244 50.884 78.244 50.164C78.244 49.54 78.472 49 78.928 48.544C79.384 48.088 80.056 47.86 80.944 47.86C81.256 47.86 81.616 47.896 82.024 47.968C82.456 48.016 82.78 48.052 82.996 48.076C82.972 47.452 82.828 46.864 82.564 46.312C82.324 45.76 82.012 45.232 81.628 44.728C81.244 44.2 80.884 43.744 80.548 43.36C79.804 44.776 79.06 45.952 78.316 46.888C77.596 47.824 76.804 48.712 75.94 49.552C75.508 49.984 75.052 50.2 74.572 50.2C74.188 50.2 73.876 50.068 73.636 49.804C73.396 49.516 73.276 49.168 73.276 48.76C73.276 48.28 73.444 47.836 73.78 47.428L74.248 46.852C75.568 45.22 76.564 43.876 77.236 42.82C77.644 42.124 78.124 41.2 78.676 40.048C79.228 38.872 79.768 37.66 80.296 36.412C80.752 35.356 81.7 34.828 83.14 34.828C83.812 34.828 84.28 34.888 84.544 35.008C84.808 35.128 84.94 35.32 84.94 35.584C84.94 35.728 84.892 35.956 84.796 36.268C84.7 36.58 84.568 36.892 84.4 37.204C83.968 38.068 83.752 38.8 83.752 39.4C83.752 39.76 83.872 40.156 84.112 40.588C84.376 41.02 84.772 41.56 85.3 42.208C86.068 43.216 86.644 44.08 87.028 44.8C87.436 45.496 87.64 46.264 87.64 47.104C87.64 47.344 87.616 47.68 87.568 48.112C88.744 47.656 90.124 46.444 91.708 44.476C91.996 44.14 92.32 43.972 92.68 43.972C92.992 43.972 93.232 44.116 93.4 44.404C93.592 44.692 93.688 45.088 93.688 45.592C93.688 46.504 93.46 47.248 93.004 47.824C91.804 49.312 90.652 50.332 89.548 50.884C88.468 51.412 87.124 51.7 85.516 51.748C84.556 52.564 83.416 52.972 82.096 52.972ZM103.363 35.224C103.915 35.224 104.299 35.296 104.515 35.44C104.731 35.584 104.839 35.824 104.839 36.16C104.839 36.736 104.527 38.788 103.903 42.316C103.351 45.7 103.027 47.704 102.931 48.328C102.043 54.496 100.819 59.38 99.2593 62.98C97.6993 66.58 95.6233 68.38 93.0313 68.38C91.8073 68.38 90.8113 67.996 90.0433 67.228C89.2753 66.484 88.8913 65.5 88.8913 64.276C88.8913 63.148 89.1433 61.996 89.6473 60.82C90.1753 59.644 91.1353 58.288 92.5273 56.752C93.9433 55.24 95.9353 53.5 98.5033 51.532L98.6113 50.704C98.7793 49.816 98.9713 48.544 99.1873 46.888C98.7073 48.616 98.0353 49.936 97.1713 50.848C96.3073 51.736 95.3953 52.18 94.4353 52.18C93.3553 52.18 92.4673 51.688 91.7713 50.704C91.0993 49.696 90.7633 48.448 90.7633 46.96C90.7633 45.16 90.8833 43.516 91.1233 42.028C91.3633 40.516 91.7593 38.92 92.3113 37.24C92.5513 36.52 92.8873 36.004 93.3193 35.692C93.7513 35.38 94.4353 35.224 95.3713 35.224C95.8993 35.224 96.2593 35.308 96.4513 35.476C96.6673 35.644 96.7753 35.896 96.7753 36.232C96.7753 36.424 96.6433 37.072 96.3793 38.176C96.1393 39.064 95.9473 39.868 95.8033 40.588C95.6113 41.572 95.4433 42.52 95.2993 43.432C95.1553 44.32 95.0833 45.052 95.0833 45.628C95.0833 46.54 95.3353 46.996 95.8393 46.996C96.1993 46.996 96.6433 46.636 97.1713 45.916C97.7233 45.196 98.2993 44.104 98.8993 42.64C99.5233 41.176 100.123 39.376 100.699 37.24C100.891 36.52 101.179 36.004 101.563 35.692C101.971 35.38 102.571 35.224 103.363 35.224ZM93.4273 64.888C94.0273 64.888 94.6993 64.192 95.4433 62.8C96.1873 61.408 96.9313 59.092 97.6753 55.852C95.8273 57.412 94.4833 58.828 93.6433 60.1C92.8273 61.396 92.4193 62.524 92.4193 63.484C92.4193 63.892 92.4913 64.228 92.6353 64.492C92.8033 64.756 93.0673 64.888 93.4273 64.888Z" fill="white"/>
<defs>
<filter id="filter0_d" x="109" y="19" width="53.0252" height="50.2233" filterUnits="userSpaceOnUse" color-interpolation-filters="sRGB">
<feFlood flood-opacity="0" result="BackgroundImageFix"/>
<feColorMatrix in="SourceAlpha" type="matrix" values="0 0 0 0 0 0 0 0 0 0 0 0 0 0 0 0 0 0 127 0"/>
<feOffset dy="4"/>
<feGaussianBlur stdDeviation="2"/>
<feColorMatrix type="matrix" values="0 0 0 0 0 0 0 0 0 0 0 0 0 0 0 0 0 0 0.35 0"/>
<feBlend mode="normal" in2="BackgroundImageFix" result="effect1_dropShadow"/>
<feBlend mode="normal" in="SourceGraphic" in2="effect1_dropShadow" result="shape"/>
</filter>
<filter id="filter1_d" x="101.094" y="7" width="76.9308" height="74.0153" filterUnits="userSpaceOnUse" color-interpolation-filters="sRGB">
<feFlood flood-opacity="0" result="BackgroundImageFix"/>
<feColorMatrix in="SourceAlpha" type="matrix" values="0 0 0 0 0 0 0 0 0 0 0 0 0 0 0 0 0 0 127 0"/>
<feOffset dx="4" dy="4"/>
<feGaussianBlur stdDeviation="8"/>
<feColorMatrix type="matrix" values="0 0 0 0 0 0 0 0 0 0 0 0 0 0 0 0 0 0 0.5 0"/>
<feBlend mode="normal" in2="BackgroundImageFix" result="effect1_dropShadow"/>
<feBlend mode="normal" in="SourceGraphic" in2="effect1_dropShadow" result="shape"/>
</filter>
<radialGradient id="paint0_radial" cx="0" cy="0" r="1" gradientUnits="userSpaceOnUse" gradientTransform="translate(143.88 43.4415) rotate(77.9052) scale(13.4023 18.9433)">
<stop stop-color="#CF75A6"/>
<stop offset="1" stop-color="#F485C1"/>
</radialGradient>
</defs>
</svg>
