<svg width="643" height="601" viewBox="0 0 643 601" fill="none" xmlns="http://www.w3.org/2000/svg">
<g filter="url(#filter0_d)">
<path d="M32.2473 257.92C33.3785 129.587 144.893 66.1067 200.51 50.4084C247.17 22.9364 376.407 -5.22236 520.066 101.918C663.725 209.059 605.376 373.204 558.243 441.884V574.339C554.001 578.754 519.783 575.222 416.847 525.772C105.774 566.98 30.8334 418.337 32.2473 257.92Z" fill="#F485C1" stroke="black"/>
<path d="M321.074 0C146.243 0 4 124.068 4 276.572C4 429.077 146.243 553.145 321.074 553.145C358.149 553.46 395.055 548.069 430.518 537.159L533.866 589.344C545.16 594.993 558.6 594.043 569.001 586.86C579.403 579.678 585.14 567.385 583.999 554.726L573.923 443.411C614.892 397.618 637.749 338.244 638.148 276.572C638.148 124.032 495.905 0 321.074 0V0ZM547.271 420.143C540.965 427.354 537.91 436.88 538.834 446.448L549.526 557.426L446.283 505.294C441.529 502.929 436.294 501.713 430.993 501.742C427.475 501.747 423.977 502.286 420.618 503.34C388.324 513.056 354.774 517.869 321.074 517.621C165.673 517.621 39.2305 409.486 39.2305 276.572C39.2305 143.659 165.673 35.524 321.074 35.524C476.476 35.524 602.918 143.659 602.918 276.572C602.447 329.689 582.644 380.781 547.271 420.143V420.143Z" fill="white"/>
<path d="M230.414 233.006C223.346 233.006 217.617 238.783 217.617 245.909V258.812C217.617 265.938 223.346 271.715 230.414 271.715C237.481 271.715 243.21 265.938 243.21 258.812V245.909C243.21 238.783 237.481 233.006 230.414 233.006Z" fill="black"/>
<path d="M409.559 233.006C402.492 233.006 396.763 238.783 396.763 245.909V258.812C396.763 265.938 402.492 271.715 409.559 271.715C416.626 271.715 422.355 265.938 422.355 258.812V245.909C422.355 238.783 416.626 233.006 409.559 233.006Z" fill="black"/>
<path d="M371.17 297.52C364.103 297.52 358.374 303.297 358.374 310.423C358.374 331.801 341.187 349.131 319.985 349.131C298.784 349.131 281.597 331.801 281.597 310.423C281.597 303.297 275.868 297.52 268.801 297.52C261.734 297.52 256.005 303.297 256.005 310.423C256.005 346.053 284.65 374.936 319.985 374.936C355.321 374.936 383.966 346.053 383.966 310.423C383.966 307.001 382.618 303.719 380.218 301.299C377.818 298.879 374.563 297.52 371.17 297.52Z" fill="black"/>
</g>
<defs>
<filter id="filter0_d" x="0" y="0" width="642.148" height="601" filterUnits="userSpaceOnUse" color-interpolation-filters="sRGB">
<feFlood flood-opacity="0" result="BackgroundImageFix"/>
<feColorMatrix in="SourceAlpha" type="matrix" values="0 0 0 0 0 0 0 0 0 0 0 0 0 0 0 0 0 0 127 0"/>
<feOffset dy="4"/>
<feGaussianBlur stdDeviation="2"/>
<feColorMatrix type="matrix" values="0 0 0 0 0 0 0 0 0 0 0 0 0 0 0 0 0 0 0.35 0"/>
<feBlend mode="normal" in2="BackgroundImageFix" result="effect1_dropShadow"/>
<feBlend mode="normal" in="SourceGraphic" in2="effect1_dropShadow" result="shape"/>
</filter>
</defs>
</svg>
